<svg width="70" height="70" viewBox="0 0 70 70" fill="none" xmlns="http://www.w3.org/2000/svg">
<g clip-path="url(#clip0_103_43)">
<path d="M41.5194 27.006C40.7562 25.4368 39.8615 24.8709 39.3187 24.5997C38.9314 24.4062 38.4848 24.3546 38.0773 24.6234L38.133 24.4926C38.2219 24.2837 38.1248 24.042 37.9157 23.9531C37.7369 23.8769 37.5345 23.938 37.4241 24.0883C37.4385 23.9603 37.4464 23.8306 37.4464 23.6989C37.4464 21.7855 35.8952 20.2344 33.9818 20.2344C32.0684 20.2344 30.5173 21.7855 30.5173 23.6989C30.5173 23.8307 30.5253 23.9603 30.5396 24.0883C30.4291 23.9381 30.2269 23.8768 30.048 23.9531C29.8391 24.042 29.7417 24.2837 29.8306 24.4926L29.8864 24.6234C29.4783 24.3543 29.0317 24.406 28.6444 24.5995C28.1018 24.8706 27.2071 25.4362 26.4437 27.0057C26.4057 27.0842 26.418 27.1775 26.4753 27.2432C26.5325 27.3087 26.6235 27.3339 26.7063 27.3067C28.0563 26.8639 29.4232 27.2562 29.9558 26.9902C30.2706 26.833 30.4854 26.5563 30.5756 26.243L30.6356 26.3836C30.7245 26.5925 30.9662 26.6898 31.1751 26.6009C31.384 26.5119 31.4813 26.2703 31.3924 26.0614L31.3411 25.941C31.9766 26.6886 32.9233 27.1636 33.9814 27.1636C35.0394 27.1636 35.9861 26.6887 36.6217 25.941L36.5705 26.0614C36.4815 26.2703 36.5786 26.5119 36.7878 26.6009C36.9967 26.69 37.2383 26.5927 37.3273 26.3836L37.3872 26.243C37.4774 26.5564 37.6923 26.8329 38.0071 26.9904C38.5396 27.2564 39.9065 26.864 41.2565 27.3068C41.3393 27.334 41.4303 27.309 41.4875 27.2433C41.5451 27.1779 41.5574 27.0845 41.5194 27.006Z" fill="white"/>
<path d="M46.4162 43.4445C45.9245 42.6024 44.8426 42.3186 44.0003 42.8109L39.4519 45.4694L38.7606 43.1925C38.9165 43.1692 39.0606 43.0933 39.1636 42.9711C39.2875 42.8241 39.3402 42.63 39.3077 42.4404C37.7208 33.1928 37.879 34.2341 37.879 33.7992L39.2014 35.645C39.5219 36.0926 40.0677 36.3262 40.6181 36.2432L45.1118 35.5634C45.9155 35.4418 46.4686 34.6916 46.347 33.8878C46.2254 33.084 45.4758 32.5312 44.6714 32.6526L41.0695 33.1975L37.898 28.7707C37.6215 28.3849 37.176 28.156 36.7013 28.156C33.9409 28.156 35.1922 28.156 31.337 28.156C30.9179 28.156 30.5188 28.3346 30.2394 28.6471L26.5142 32.815L23.144 32.9938C22.3321 33.0369 21.7089 33.7301 21.7521 34.5418C21.7939 35.3272 22.4436 35.9359 23.2208 35.9359C23.2838 35.9359 27.2182 35.7258 27.2817 35.7224C27.6731 35.7017 28.04 35.5257 28.3013 35.2334L30.0093 33.3222L27.7659 42.3942C27.7177 42.5888 27.7618 42.7947 27.8854 42.9526C28.009 43.1105 28.1983 43.2028 28.3988 43.2028H29.7459L29.2244 47.9296C29.1655 48.4631 29.3524 48.9943 29.7322 49.3735C30.1135 49.7543 30.6461 49.9385 31.1768 49.8788L35.3764 49.4086C35.2755 49.17 35.3514 49.3944 34.3127 45.9727L32.9781 46.1222L33.3002 43.2029C33.9522 43.2029 34.3296 43.2029 35.0715 43.2029L36.721 48.6365C36.8779 49.1539 37.2632 49.5708 37.7667 49.768C38.2633 49.9626 38.8297 49.9248 39.3027 49.6485L45.7828 45.8608C46.6248 45.3684 46.9084 44.2867 46.4162 43.4445Z" fill="white"/>
<path d="M61.9752 25.6883C64.0359 25.6883 65.7063 24.0178 65.7063 21.9572C65.7063 19.8965 64.0359 18.2261 61.9752 18.2261C59.9146 18.2261 58.2441 19.8965 58.2441 21.9572C58.2441 24.0178 59.9146 25.6883 61.9752 25.6883Z" fill="white"/>
<path d="M69.1401 32.5373L64.9942 28.6896L66.6614 29.5466C66.7261 28.9087 66.5481 28.2687 66.1563 27.7582C65.7754 27.2617 65.2239 26.9289 64.6118 26.8163C63.5939 26.6403 62.1728 26.5001 62.1728 26.5001C61.5057 26.4155 60.8327 26.6009 60.303 27.015C59.7733 27.4291 59.4312 28.0377 59.3523 28.7052L59.1996 29.9991L57.1458 31.6171L53.5393 31.9742C53.1902 30.1076 52.3246 26.4824 50.4065 22.8357C46.7596 15.9022 41.0649 12.3031 33.9465 12.4251C26.8187 12.5481 21.3606 16.237 18.1623 23.093C16.5049 26.6456 15.8699 30.1428 15.6342 31.9897C13.3082 32.2984 13.8986 32.2201 11.7537 32.5048L7.74434 28.3216L11.0326 30.4484L10.8273 28.7088C10.7484 28.0412 10.4063 27.4326 9.87657 27.0185C9.34688 26.6044 8.67385 26.4191 8.0068 26.5037C5.50127 26.8212 5.5524 26.7996 5.24316 26.9002C4.88631 26.9508 4.54619 27.1272 4.2976 27.426L0.341426 32.1799C0.0910634 32.4807 -0.0321462 32.8672 -0.00249975 33.2572L0.562687 40.6626C0.622932 41.4525 1.28277 42.0534 2.06201 42.0534C2.94297 42.0534 3.6311 41.3049 3.56446 40.4335L3.04565 33.6365L3.92783 32.5764L5.87539 46.9269L5.55322 55.7344C5.51677 56.7313 6.29547 57.5691 7.29243 57.6056C8.30327 57.6396 9.12766 56.8527 9.1637 55.8664L9.49171 46.8954C9.49565 46.7865 9.48981 46.6775 9.47417 46.5697L8.70431 40.0968L11.4878 46.9717L10.3245 55.558C10.1907 56.5465 10.8833 57.4565 11.872 57.5904C12.8588 57.7244 13.7705 57.033 13.9047 56.043L15.1326 46.9812C15.1747 46.6695 15.135 46.3522 15.0168 46.0607L11.9945 38.5961L11.9065 37.8512C11.2592 37.8871 10.595 37.7265 10.009 37.3475C9.54461 37.0471 9.17865 36.6334 8.93346 36.1786L6.19456 31.0555L10.1086 35.1389C10.4467 35.4917 10.9273 35.6518 11.3933 35.5895C12.4656 35.4471 17.0832 34.8342 17.8324 34.7348C18.6565 34.6254 19.236 33.8686 19.1265 33.0445C19.0341 32.3474 18.4777 31.827 17.8097 31.749C18.0754 29.9539 18.692 26.9708 20.083 23.9889C22.9556 17.8315 27.6322 14.6538 33.9832 14.5442C40.3229 14.4335 45.2081 17.5391 48.5043 23.7716C50.2402 27.0537 51.0681 30.3962 51.4183 32.1844L51.3611 32.1899C50.5338 32.2718 49.9295 33.0089 50.0115 33.8363C50.0932 34.6619 50.8284 35.2677 51.6578 35.1859L57.8806 34.5697C58.212 34.5369 58.4647 34.4108 58.701 34.2248L58.1853 38.5926L55.163 46.0571C55.045 46.3486 55.0051 46.6658 55.0473 46.9777L56.2752 56.0394C56.4087 57.0254 57.3157 57.7208 58.3079 57.5869C59.2964 57.4529 59.9893 56.5429 59.8553 55.5545L58.692 46.9681L61.0149 41.231V55.7968C61.0149 56.7943 61.8237 57.6031 62.8212 57.6031C63.8187 57.6031 64.6275 56.7943 64.6275 55.7968V39.6818C65.0991 39.281 65.4105 38.7214 65.4948 38.1048L65.8392 35.5884L62.2858 30.283L66.5327 34.2247C66.1586 37.4383 66.085 38.07 65.7487 40.96C65.6526 41.7857 66.2441 42.5331 67.0699 42.6293C67.8939 42.7254 68.6428 42.1352 68.7392 41.3081C68.9096 39.8437 69.4388 35.2987 69.6113 33.8148C69.6668 33.338 69.4918 32.8635 69.1401 32.5373Z" fill="white"/>
<path d="M8.20571 25.6929C10.2663 25.6929 11.9368 24.0224 11.9368 21.9618C11.9368 19.9012 10.2663 18.2307 8.20571 18.2307C6.14508 18.2307 4.47461 19.9012 4.47461 21.9618C4.47461 24.0224 6.14508 25.6929 8.20571 25.6929Z" fill="white"/>
</g>
<defs>
<clipPath id="clip0_103_43">
<rect width="69.6284" height="69.6284" fill="white" transform="translate(-0.00683594 0.200195)"/>
</clipPath>
</defs>
</svg>
