<svg width="67" height="54" viewBox="0 0 67 54" fill="none" xmlns="http://www.w3.org/2000/svg">
<path d="M2.32349 2.90381V51.2568M2.32349 40.8955H64.4917M64.4917 51.2568V31.2249C64.4917 27.3563 64.4917 25.4218 63.7388 23.9443C63.0767 22.6446 62.0198 21.5878 60.7201 20.9257C59.2426 20.1728 57.3081 20.1728 53.4396 20.1728H29.9538V39.9536M16.1386 27.0803H16.1732M19.5924 27.0803C19.5924 28.9879 18.0461 30.5341 16.1386 30.5341C14.2312 30.5341 12.6849 28.9879 12.6849 27.0803C12.6849 25.1728 14.2312 23.6265 16.1386 23.6265C18.0461 23.6265 19.5924 25.1728 19.5924 27.0803Z" stroke="white" stroke-width="4.1844" stroke-linecap="round" stroke-linejoin="round"/>
</svg>
