<svg width="73" height="70" viewBox="0 0 73 70" fill="none" xmlns="http://www.w3.org/2000/svg">
<path d="M56.056 26.1463H50.0119M50.0119 26.1463H43.9678M50.0119 26.1463V20.3439M50.0119 26.1463V31.9486" stroke="white" stroke-width="4.23089" stroke-linecap="round"/>
<path d="M36.4126 16.2071L34.7571 17.6932C35.1857 18.1332 35.7849 18.383 36.4126 18.383C37.0403 18.383 37.6396 18.1332 38.0681 17.6932L36.4126 16.2071ZM8.16111 39.7298C8.80892 40.7583 10.2024 41.0876 11.2735 40.4658C12.3446 39.8438 12.6878 38.5061 12.04 37.4779L8.16111 39.7298ZM19.9041 46.9497C19.0308 46.0886 17.5958 46.0703 16.699 46.9088C15.8021 47.7469 15.7831 49.1247 16.6564 49.9855L19.9041 46.9497ZM8.45851 27.0673C8.45851 18.6405 12.2895 13.4312 17.0291 11.6495C21.7584 9.8718 28.3751 11.1406 34.7571 17.6932L38.0681 14.721C30.8514 7.31125 22.3577 4.97298 15.3763 7.59733C8.40539 10.2177 3.92542 17.4197 3.92542 27.0673H8.45851ZM47.0228 57.946C51.5329 54.4324 56.9367 49.7235 61.2319 44.4642C65.4837 39.2584 68.8998 33.2117 68.8998 27.0672H64.3667C64.3667 31.7423 61.7094 36.8266 57.6647 41.7789C53.6638 46.6779 48.548 51.1535 44.1663 54.567L47.0228 57.946ZM68.8998 27.0672C68.8998 17.4197 64.4199 10.2177 57.4489 7.59733C50.4676 4.97298 41.9738 7.31125 34.7571 14.721L38.0681 17.6932C44.4501 11.1406 51.0669 9.87177 55.7961 11.6495C60.5356 13.4312 64.3667 18.6404 64.3667 27.0672H68.8998ZM25.8026 57.946C29.6449 60.9395 32.3096 63.1363 36.4126 63.1363V58.7845C34.228 58.7845 32.8674 57.8454 28.659 54.567L25.8026 57.946ZM44.1663 54.567C39.9578 57.8454 38.5973 58.7845 36.4126 58.7845V63.1363C40.5157 63.1363 43.1802 60.9395 47.0228 57.946L44.1663 54.567ZM12.04 37.4779C9.78251 33.8947 8.45851 30.3674 8.45851 27.0673H3.92542C3.92542 31.4545 5.66751 35.772 8.16111 39.7298L12.04 37.4779ZM28.659 54.567C25.8877 52.408 22.8101 49.8146 19.9041 46.9497L16.6564 49.9855C19.7172 53.003 22.9341 55.7116 25.8026 57.946L28.659 54.567Z" fill="white"/>
</svg>
