<svg width="18" height="18" viewBox="0 0 18 18" fill="none" xmlns="http://www.w3.org/2000/svg">
<path fill-rule="evenodd" clip-rule="evenodd" d="M8.58703 0.535156C6.28052 0.535156 5.99106 0.545241 5.08516 0.586467C4.18103 0.627869 3.56388 0.771009 3.02388 0.981029C2.4653 1.19795 1.99147 1.48812 1.51941 1.96036C1.047 2.43242 0.75683 2.90624 0.539202 3.46465C0.328651 4.00482 0.185334 4.62215 0.14464 5.52592C0.104122 6.43182 0.0935059 6.72146 0.0935059 9.02797C0.0935059 11.3345 0.103768 11.6231 0.144817 12.529C0.186396 13.4331 0.329535 14.0502 0.539379 14.5902C0.756476 15.1488 1.04665 15.6226 1.51888 16.0947C1.99077 16.5671 2.46459 16.858 3.02282 17.0749C3.56317 17.2849 4.1805 17.4281 5.08445 17.4695C5.99035 17.5107 6.27964 17.5208 8.58597 17.5208C10.8926 17.5208 11.1812 17.5107 12.0871 17.4695C12.9913 17.4281 13.6091 17.2849 14.1495 17.0749C14.7079 16.858 15.181 16.5671 15.6529 16.0947C16.1253 15.6226 16.4155 15.1488 16.6331 14.5904C16.8419 14.0502 16.9852 13.4329 17.0276 12.5291C17.0683 11.6232 17.079 11.3345 17.079 9.02797C17.079 6.72146 17.0683 6.432 17.0276 5.5261C16.9852 4.62197 16.8419 4.00482 16.6331 3.46482C16.4155 2.90624 16.1253 2.43242 15.6529 1.96036C15.1805 1.48794 14.708 1.19777 14.1489 0.981029C13.6075 0.771009 12.99 0.627869 12.0859 0.586467C11.18 0.545241 10.8916 0.535156 8.58437 0.535156H8.58703ZM7.82531 2.06541C8.05143 2.06506 8.30373 2.06541 8.58718 2.06541C10.8548 2.06541 11.1235 2.07355 12.019 2.11425C12.847 2.15211 13.2964 2.29047 13.5958 2.40672C13.9921 2.56065 14.2747 2.74466 14.5718 3.04191C14.869 3.33916 15.053 3.62225 15.2073 4.01858C15.3236 4.3176 15.4621 4.76701 15.4998 5.59506C15.5405 6.49035 15.5493 6.75928 15.5493 9.0258C15.5493 11.2923 15.5405 11.5613 15.4998 12.4565C15.4619 13.2846 15.3236 13.734 15.2073 14.033C15.0534 14.4294 14.869 14.7116 14.5718 15.0086C14.2745 15.3059 13.9923 15.4899 13.5958 15.6438C13.2968 15.7606 12.847 15.8986 12.019 15.9365C11.1237 15.9772 10.8548 15.986 8.58718 15.986C6.31942 15.986 6.05066 15.9772 5.15538 15.9365C4.32733 15.8983 3.87792 15.7599 3.57837 15.6437C3.18204 15.4897 2.89894 15.3057 2.60169 15.0085C2.30445 14.7112 2.12044 14.4288 1.96615 14.0323C1.8499 13.7333 1.71136 13.2839 1.67368 12.4558C1.63298 11.5606 1.62484 11.2916 1.62484 9.02368C1.62484 6.75575 1.63298 6.48822 1.67368 5.59294C1.71154 4.76489 1.8499 4.31548 1.96615 4.01611C2.12008 3.61977 2.30445 3.33668 2.60169 3.03943C2.89894 2.74218 3.18204 2.55817 3.57837 2.40389C3.87774 2.28711 4.32733 2.1491 5.15538 2.11106C5.93884 2.07568 6.24246 2.06506 7.82531 2.06329V2.06541ZM13.1207 3.47566C12.558 3.47566 12.1016 3.93161 12.1016 4.49444C12.1016 5.05709 12.558 5.51358 13.1207 5.51358C13.6833 5.51358 14.1398 5.05709 14.1398 4.49444C14.1398 3.93179 13.6833 3.4753 13.1207 3.4753V3.47566ZM8.58713 4.66649C6.17853 4.66649 4.22572 6.61931 4.22572 9.02791C4.22572 11.4365 6.17853 13.3884 8.58713 13.3884C10.9957 13.3884 12.9478 11.4365 12.9478 9.02791C12.9478 6.61931 10.9956 4.66649 8.58695 4.66649H8.58713ZM8.58698 6.19721C10.1504 6.19721 11.4179 7.46459 11.4179 9.02815C11.4179 10.5915 10.1504 11.8591 8.58698 11.8591C7.02342 11.8591 5.75605 10.5915 5.75605 9.02815C5.75605 7.46459 7.02342 6.19721 8.58698 6.19721Z" fill="#737373"/>
</svg>
