<svg width="50" height="44" viewBox="0 0 50 44" fill="none" xmlns="http://www.w3.org/2000/svg">
<path d="M44.9006 21.7176H37.2932V15.6317C37.2932 12.275 40.0224 9.54582 43.3791 9.54582H44.1398C45.4046 9.54582 46.422 8.52834 46.422 7.26361V2.6992C46.422 1.43448 45.4046 0.416992 44.1398 0.416992H43.3791C34.973 0.416992 28.1644 7.22558 28.1644 15.6317V38.4538C28.1644 40.9737 30.2089 43.0182 32.7288 43.0182H44.9006C47.4205 43.0182 49.465 40.9737 49.465 38.4538V26.282C49.465 23.7621 47.4205 21.7176 44.9006 21.7176ZM17.5141 21.7176H9.90672V15.6317C9.90672 12.275 12.6359 9.54582 15.9926 9.54582H16.7533C18.0181 9.54582 19.0356 8.52834 19.0356 7.26361V2.6992C19.0356 1.43448 18.0181 0.416992 16.7533 0.416992H15.9926C7.58648 0.416992 0.777893 7.22558 0.777893 15.6317V38.4538C0.777893 40.9737 2.82237 43.0182 5.34231 43.0182H17.5141C20.034 43.0182 22.0785 40.9737 22.0785 38.4538V26.282C22.0785 23.7621 20.034 21.7176 17.5141 21.7176Z" fill="#F69B00"/>
</svg>
