<svg width="34" height="33" viewBox="0 0 34 33" fill="none" xmlns="http://www.w3.org/2000/svg">
<g clip-path="url(#clip0_40_40)">
<path d="M31.6974 19.7053C32.2053 19.2062 32.6084 18.6106 32.8829 17.9535C33.1574 17.2964 33.2977 16.5911 33.2958 15.879C33.2956 14.9135 33.029 13.9668 32.5253 13.1432C32.0216 12.3195 31.3003 11.6509 30.4409 11.2109C29.8102 8.13349 28.1364 5.36818 25.7023 3.38235C23.2682 1.39652 20.2232 0.311951 17.0818 0.311951C13.9404 0.311951 10.8953 1.39652 8.46127 3.38235C6.02719 5.36818 4.35336 8.13349 3.72268 11.2109C2.86363 11.6512 2.14269 12.3199 1.63923 13.1435C1.13577 13.9671 0.869293 14.9137 0.869141 15.879C0.870725 17.1418 1.31525 18.3641 2.12529 19.3328C2.93533 20.3016 4.05955 20.9556 5.30213 21.1807C5.77736 22.104 6.36309 22.966 7.04641 23.7479C5.3646 25.6036 4.23614 27.8933 3.78889 30.3575C3.74197 30.6196 3.74715 30.8883 3.80413 31.1484C3.86111 31.4084 3.96878 31.6547 4.12098 31.8732C4.27317 32.0916 4.46692 32.2779 4.69115 32.4215C4.91537 32.565 5.16569 32.663 5.42778 32.7098C5.54658 32.7292 5.6668 32.7387 5.78718 32.7381C6.26222 32.7373 6.72188 32.5697 7.08588 32.2644C7.44989 31.9592 7.69511 31.5358 7.77871 31.0682C8.09394 29.3363 8.88987 27.7281 10.0756 26.4271C12.1435 27.8419 14.5776 28.6262 17.0825 28.6848C19.5892 28.6272 22.0253 27.8429 24.0947 26.4271C25.2804 27.7281 26.0764 29.3363 26.3916 31.0682C26.475 31.5349 26.7195 31.9576 27.0824 32.2627C27.4452 32.5678 27.9036 32.7361 28.3777 32.7381C28.4982 32.7378 28.6184 32.7274 28.7371 32.7071C28.9992 32.6603 29.2495 32.5623 29.4738 32.4188C29.698 32.2752 29.8917 32.0889 30.0439 31.8705C30.1961 31.652 30.3038 31.4057 30.3608 31.1457C30.4178 30.8856 30.4229 30.6168 30.376 30.3548C29.9288 27.8906 28.8003 25.6009 27.1185 23.7452C27.802 22.9635 28.3878 22.1014 28.8628 21.178C29.9356 20.9874 30.9246 20.4736 31.6974 19.7053ZM27.8913 17.2112H27.8765H27.6576C27.2111 17.1779 26.766 17.2921 26.3906 17.5362C26.0153 17.7802 25.7303 18.1407 25.5796 18.5623C24.8897 20.2791 23.7232 21.7627 22.2176 22.8381C20.712 23.9135 18.9302 24.5358 17.0825 24.6315C15.2326 24.5358 13.4487 23.9124 11.942 22.835C10.4352 21.7575 9.26854 20.2711 8.57992 18.5515C8.44031 18.1566 8.1818 17.8147 7.83993 17.5728C7.49806 17.3308 7.08963 17.2007 6.6708 17.2004C6.61406 17.2004 6.55866 17.2004 6.50192 17.2071H6.27493H6.26007C5.90673 17.2079 5.56752 17.0685 5.31679 16.8195C5.06606 16.5705 4.92426 16.2323 4.92247 15.879C4.9234 15.5997 5.02218 15.3296 5.20163 15.1156C5.38109 14.9015 5.62987 14.7572 5.90473 14.7076C6.33533 14.6289 6.72888 14.4129 7.0265 14.0919C7.32411 13.7709 7.5098 13.3621 7.55578 12.9268C7.81788 10.4199 9.06195 8.11879 11.016 6.52661C11.0415 7.71652 11.4162 8.87269 12.0934 9.8514C12.7707 10.8301 13.7206 11.5882 14.8252 12.0314C15.9298 12.4747 17.1403 12.5835 18.3062 12.3444C19.4721 12.1053 20.5421 11.5289 21.383 10.6867C21.5796 10.5003 21.7368 10.2764 21.8454 10.0282C21.9539 9.78005 22.0117 9.51262 22.0151 9.24176C22.0185 8.9709 21.9677 8.70209 21.8654 8.45123C21.7632 8.20038 21.6117 7.97256 21.42 7.78124C21.2282 7.58992 21 7.43899 20.7489 7.33736C20.4978 7.23573 20.2289 7.18548 19.9581 7.18956C19.6872 7.19364 19.4199 7.25198 19.172 7.36113C18.9241 7.47028 18.7005 7.62802 18.5146 7.82503C18.1287 8.19379 17.6155 8.39958 17.0818 8.39958C16.548 8.39958 16.0348 8.19379 15.6489 7.82503C15.3653 7.54159 15.1721 7.18039 15.0939 6.78714C15.0156 6.39388 15.0557 5.98625 15.2092 5.61581C15.3627 5.24537 15.6226 4.92878 15.956 4.7061C16.2895 4.48342 16.6815 4.36466 17.0825 4.36484C19.4484 4.35912 21.7323 5.23163 23.4918 6.8134C25.2513 8.39516 26.3611 10.5736 26.6064 12.9268C26.6526 13.3625 26.8386 13.7715 27.1368 14.0926C27.4349 14.4136 27.8291 14.6294 28.2602 14.7076C28.535 14.7572 28.7838 14.9015 28.9633 15.1156C29.1427 15.3296 29.2415 15.5997 29.2424 15.879C29.2428 16.0549 29.2081 16.2292 29.1404 16.3916C29.0726 16.554 28.9732 16.7012 28.8479 16.8248C28.7219 16.9492 28.5725 17.0474 28.4083 17.1137C28.2441 17.18 28.0684 17.2132 27.8913 17.2112Z" fill="#F69B00"/>
<path d="M13.7045 17.8761C14.8238 17.8761 15.7312 16.9688 15.7312 15.8495C15.7312 14.7302 14.8238 13.8228 13.7045 13.8228C12.5852 13.8228 11.6779 14.7302 11.6779 15.8495C11.6779 16.9688 12.5852 17.8761 13.7045 17.8761Z" fill="#F69B00"/>
<path d="M20.4603 17.8761C21.5796 17.8761 22.4869 16.9688 22.4869 15.8495C22.4869 14.7302 21.5796 13.8228 20.4603 13.8228C19.341 13.8228 18.4336 14.7302 18.4336 15.8495C18.4336 16.9688 19.341 17.8761 20.4603 17.8761Z" fill="#F69B00"/>
</g>
<defs>
<clipPath id="clip0_40_40">
<rect width="32.4266" height="32.4266" fill="white" transform="translate(0.869141 0.311584)"/>
</clipPath>
</defs>
</svg>
