<svg width="37" height="36" viewBox="0 0 37 36" fill="none" xmlns="http://www.w3.org/2000/svg">
<path d="M23.5688 16.3662C23.5688 17.7964 21.4383 20.4625 19.4475 22.0575C19.3695 22.1208 19.2665 22.1193 19.1885 22.0575C17.1977 20.4625 15.0671 17.7964 15.0671 16.3662C15.0671 15.4745 15.691 14.7476 16.4561 14.7476C17.0976 14.7476 17.8451 15.0978 17.8451 16.0851C17.8451 16.8974 18.5028 17.5565 19.3165 17.5565C20.1302 17.5565 20.7879 16.8974 20.7879 16.0851C20.7879 15.0978 21.5368 14.7476 22.1769 14.7476C22.9435 14.7476 23.5659 15.4745 23.5659 16.3662H23.5688ZM36.2376 4.15507C35.9212 14.2297 34.0702 21.5661 30.7389 25.9567C28.0272 29.5293 23.944 31.8041 19.5343 32.1969C19.0811 32.2381 18.6308 32.2573 18.1835 32.2573C14.8788 32.2573 11.7712 31.1625 9.24922 29.1055L3.43868 34.9161C3.15175 35.203 2.77508 35.3472 2.3984 35.3472C2.02172 35.3472 1.64504 35.203 1.35812 34.9161C0.782807 34.3407 0.782807 33.4108 1.35812 32.8355L7.16866 27.0264C5.09988 24.5045 3.94189 21.3925 3.87274 18.073C3.78887 14.0487 5.31176 10.2643 8.15744 7.41863C11.7138 3.86226 15.8882 3.58711 19.9242 3.32373C23.4879 3.08978 27.1723 2.84847 30.9714 0.491296C31.9396 -0.113447 33.1417 -0.117861 34.185 0.485411C35.4592 1.22111 36.2846 2.69545 36.239 4.15654L36.2376 4.15507ZM26.5116 16.3662C26.5116 13.8516 24.5679 11.8049 22.1798 11.8049C21.0631 11.8049 20.0713 12.1801 19.3194 12.8172C18.5661 12.1801 17.5744 11.8049 16.4591 11.8049C14.071 11.8049 12.1273 13.8516 12.1273 16.3662C12.1273 20.1256 17.1374 24.1822 17.3522 24.3544C17.9319 24.8179 18.6264 25.0504 19.3209 25.0504C20.0154 25.0504 20.7099 24.8179 21.2896 24.3544C21.5045 24.1837 26.5146 20.1256 26.5146 16.3662H26.5116Z" fill="#2CA23F"/>
</svg>
