<svg width="94" height="100" viewBox="0 0 94 116" fill="none" xmlns="http://www.w3.org/2000/svg">
<path d="M34.4369 1.35503C32.0327 1.35503 30.4127 3.26162 30.4127 5.61026V25.8787C30.4127 28.1834 29.2286 29.2861 27.4113 29.2861C25.7515 29.2861 24.7722 27.9167 24.7722 26.2907L24.6809 5.23607C24.6809 2.57907 22.3643 0.879395 20.2107 0.879395C18.0593 0.879395 15.7407 2.57907 15.7407 5.23607V26.2907C15.7407 27.9167 14.6698 29.2861 13.01 29.2861C11.195 29.2861 10.0088 28.1834 10.0088 25.8787V5.61026C10.0088 3.26162 8.39066 1.35503 5.9885 1.35503C3.58254 1.35907 2.30252 3.4289 2.03984 5.45888C1.7812 7.49088 0.445643 22.0017 0.300308 31.276C0.151167 40.5526 6.66322 45.9778 10.3729 47.7015C12.9106 48.8796 14.7455 51.4132 14.7455 54.4603V62.1386H25.6758V54.4603C25.6758 51.4132 27.5108 48.8796 30.0484 47.7015C33.7601 45.9781 40.2722 40.5526 40.1248 31.276C39.9777 22.0017 38.6442 7.49088 38.3815 5.45888C38.1188 3.4289 36.841 1.35907 34.4369 1.35503Z" fill="#2CA23F"/>
<path d="M64.2388 47.7016C67.2359 50.3525 68.6114 51.4133 68.6114 54.4604V62.1387H79.5434V54.4604C79.5434 51.4133 80.9166 50.3525 83.9142 47.7016C86.9792 44.9929 93.9887 37.4619 93.9887 28.1853C93.9887 11.991 83.7389 1.68164 74.0765 1.68164C64.4139 1.68164 54.1641 11.991 54.1641 28.1853C54.1641 37.4619 61.1735 44.9929 64.2388 47.7016Z" fill="#F69B00"/>
<path d="M29.6384 65.2476H10.7871C8.39497 65.2476 6.45636 67.1862 6.45636 69.5783C6.45636 71.9703 8.39497 73.909 10.7871 73.909H29.6384C32.0307 73.909 33.9691 71.9703 33.9691 69.5783C33.9691 67.1862 32.0307 65.2476 29.6384 65.2476Z" fill="#2CA23F"/>
<path d="M11.0417 106.363C11.0417 111.428 15.1478 115.535 20.2128 115.535C25.278 115.535 29.3838 111.429 29.3838 106.363V76.9658H11.0417V106.363Z" fill="#2CA23F"/>
<path d="M83.5022 65.2476H64.6506C62.2583 65.2476 60.3199 67.1862 60.3199 69.5783C60.3199 71.9703 62.2583 73.909 64.6506 73.909H83.5019C85.894 73.909 87.8326 71.9703 87.8326 69.5783C87.8326 67.1862 85.8943 65.2476 83.5022 65.2476Z" fill="#F69B00"/>
<path d="M64.9054 106.363C64.9054 111.428 69.0113 115.535 74.0765 115.535C79.1417 115.535 83.2475 111.429 83.2475 106.363V76.9658H64.9056V106.363H64.9054Z" fill="#F69B00"/>
</svg>
