<svg width="97" height="100" viewBox="0 0 97 100" fill="none" xmlns="http://www.w3.org/2000/svg">
<path d="M89.6022 23.2879L80.5523 21.5767L74.7265 25.2904V54.0646C74.7265 68.5291 62.9587 80.297 48.4942 80.297C34.0297 80.297 22.2619 68.5291 22.2619 54.0646V25.2906L16.4359 21.5767L7.38185 23.2888C5.09397 23.7281 3.15765 26.0718 3.15765 28.4058V92.0772C3.15765 94.3002 4.96619 96.1088 7.18923 96.1088H89.7992C92.0225 96.1088 93.8308 94.3002 93.8308 92.0772V28.4058C93.8308 26.0718 91.8943 23.7281 89.6022 23.2879ZM76.9138 84.3136C76.0418 84.3136 75.3349 83.6067 75.3349 82.7347C75.3349 81.8628 76.0418 81.1559 76.9138 81.1559C77.7857 81.1559 78.4927 81.8628 78.4927 82.7347C78.4927 83.6067 77.7857 84.3136 76.9138 84.3136ZM83.2292 77.9981C82.3573 77.9981 81.6504 77.2912 81.6504 76.4193C81.6504 75.5473 82.3573 74.8404 83.2292 74.8404C84.1012 74.8404 84.8081 75.5473 84.8081 76.4193C84.8081 77.2912 84.1012 77.9981 83.2292 77.9981Z" fill="#F69B00"/>
<path d="M38.3586 74.7904L38.8779 71.3775C38.0155 71.2464 37.4229 70.4412 37.554 69.5791L42.3607 37.9875L38.6672 28.901L36.4122 32.4385C35.9436 33.1737 34.9674 33.3901 34.2321 32.921L25.4195 27.3032V54.0646C25.4197 63.1538 30.7026 71.0312 38.3586 74.7904Z" fill="#F2EBD9"/>
<path d="M18.3361 8.21902V19.0435L34.5984 29.4101L41.0614 19.2717L25.8148 9.55074C25.0795 9.08192 24.8635 8.10597 25.3323 7.37064C25.8011 6.63552 26.7771 6.41953 27.5124 6.88814L43.7019 17.2103H53.2864L69.4772 6.88751C70.2125 6.41848 71.1884 6.63447 71.6573 7.37001C72.1261 8.10534 71.9099 9.08129 71.1748 9.5501L55.9269 19.2717L62.39 29.4101L78.6523 19.0435V8.21902C78.6523 5.60715 76.5273 3.48242 73.9157 3.48242H23.0727C20.4608 3.48242 18.3361 5.60715 18.3361 8.21902Z" fill="white"/>
<path d="M71.5688 54.0648V27.3032L62.7561 32.921C62.4931 33.0886 62.1992 33.1688 61.9089 33.1688C61.3875 33.1688 60.8772 32.9107 60.5762 32.4385L58.3213 28.9012L54.6281 37.9875L59.435 69.5791C59.5661 70.4412 58.9737 71.2464 58.1114 71.3775C58.111 71.3775 58.6302 74.7904 58.6302 74.7904C66.286 71.0312 71.5688 63.1538 71.5688 54.0648Z" fill="#F2EBD9"/>
<path d="M48.4943 77.1392C52.1286 77.1392 55.5686 76.2936 58.6299 74.7903L58.1106 71.3774C58.0304 71.3896 57.9506 71.3955 57.8719 71.3955C57.1045 71.3955 56.4317 70.8355 56.3128 70.0539L51.6446 39.374H45.3439L40.6757 70.0541C40.5568 70.8355 39.8838 71.3957 39.1169 71.3957C39.0379 71.3957 38.9581 71.3898 38.8779 71.3776L38.3586 74.7905C41.4199 76.2936 44.8599 77.1392 48.4943 77.1392Z" fill="#2CA23F"/>
<path d="M45.0495 36.2165H51.9389L56.2395 25.636L52.8811 20.3677H44.1073L40.7487 25.6358L45.0495 36.2165Z" fill="#2CA23F"/>
<path d="M90.1934 20.1859L81.8102 18.6007V8.21854C81.8102 3.86551 78.269 0.324219 73.9159 0.324219H23.0727C18.7197 0.324219 15.1784 3.86551 15.1784 8.21854V18.6007L6.7908 20.187C3.04637 20.9059 0 24.5928 0 28.4057V92.0771C0 96.0413 3.22488 99.2664 7.18931 99.2664H89.7993C93.7635 99.2664 96.9886 96.0413 96.9886 92.0771V28.4057C96.9886 24.5928 93.9424 20.9059 90.1934 20.1859ZM93.8309 92.0771C93.8309 94.3001 92.0223 96.1087 89.7993 96.1087H7.18931C4.96627 96.1087 3.15773 94.3001 3.15773 92.0771V28.4057C3.15773 26.0717 5.09426 23.728 7.38193 23.2887L16.436 21.5766L22.262 25.2905V54.0648C22.262 68.5293 34.0298 80.2971 48.4943 80.2971C62.9588 80.2971 74.7266 68.5293 74.7266 54.0648V25.2903L80.5524 21.5766L89.6023 23.2879C91.8943 23.728 93.8309 26.0717 93.8309 28.4057V92.0771ZM73.9159 3.48195C76.5276 3.48195 78.6525 5.60668 78.6525 8.21854V19.043L62.3902 29.4096L55.9272 19.2712L71.175 9.54963C71.9101 9.08081 72.1263 8.10465 71.6575 7.36953C71.1885 6.6342 70.2127 6.41822 69.4774 6.88703L53.2867 17.2099H43.7021L27.5127 6.88766C26.7771 6.41906 25.8014 6.63505 25.3326 7.37017C24.8638 8.1055 25.0797 9.08144 25.8151 9.55026L41.0616 19.2712L34.5986 29.4096L18.3363 19.043V8.21854C18.3363 5.60668 20.461 3.48195 23.0729 3.48195H73.9159ZM25.4197 27.3034L34.2323 32.9212C34.9676 33.3901 35.9438 33.1739 36.4124 32.4387L38.6674 28.9012L42.3609 37.9877L37.5542 69.5793C37.4231 70.4414 38.0155 71.2466 38.8778 71.3778C38.9586 71.39 39.0382 71.3959 39.1171 71.3959C39.8842 71.3959 40.557 70.8359 40.676 70.0543L45.3442 39.3744H51.6449L56.313 70.0543C56.432 70.8357 57.105 71.3959 57.8721 71.3959C57.9509 71.3959 58.0306 71.39 58.1109 71.3778C58.9735 71.2466 59.5661 70.4414 59.435 69.5793L54.6279 37.9875L58.3212 28.9012L60.576 32.4385C60.877 32.9107 61.3873 33.1688 61.9088 33.1688C62.1993 33.1688 62.4929 33.0888 62.7559 32.921L71.5687 27.3032V54.0646C71.5687 63.1538 66.2856 71.031 58.6296 74.7904C55.5682 76.2935 52.1282 77.1394 48.4939 77.1394C44.8595 77.1394 41.4195 76.2937 38.3582 74.7904C30.7022 71.0313 25.4191 63.1538 25.4191 54.0646V27.3034H25.4197ZM52.8812 20.3678L56.2398 25.6362L51.939 36.2167H45.0496L40.7488 25.6359L44.1072 20.3676L52.8812 20.3678Z" fill="#F69B00"/>
<path d="M83.2293 77.9976C84.1013 77.9976 84.8082 77.2907 84.8082 76.4187C84.8082 75.5467 84.1013 74.8398 83.2293 74.8398C82.3573 74.8398 81.6505 75.5467 81.6505 76.4187C81.6505 77.2907 82.3573 77.9976 83.2293 77.9976Z" fill="#F69B00"/>
<path d="M76.9138 84.314C77.7858 84.314 78.4927 83.6071 78.4927 82.7351C78.4927 81.8631 77.7858 81.1562 76.9138 81.1562C76.0418 81.1562 75.335 81.8631 75.335 82.7351C75.335 83.6071 76.0418 84.314 76.9138 84.314Z" fill="#F69B00"/>
</svg>
