<svg width="103" height="100" viewBox="0 0 103 122" fill="none" xmlns="http://www.w3.org/2000/svg">
<path d="M61.0193 95.7961V6.7626C61.0193 5.77978 60.6275 4.83718 59.93 4.14204C59.2325 3.44691 58.2864 3.05616 57.2997 3.05566H7.08765C6.10099 3.05616 5.15491 3.44691 4.45742 4.14204C3.75992 4.83718 3.3681 5.77978 3.3681 6.7626V71.7541C3.3681 72.7368 3.75998 73.6791 4.45753 74.374C5.15508 75.0688 6.10117 75.4592 7.08765 75.4592H44.7785L48.4887 86.2579C59.4399 104.608 61.0193 95.7961 61.0193 95.7961Z" fill="white" stroke="#2CA23F" stroke-width="5.4521" stroke-linecap="round" stroke-linejoin="round"/>
<path d="M13.207 20.2202H35.0683" stroke="#2CA23F" stroke-width="5.4521" stroke-miterlimit="10"/>
<path d="M13.207 33.562H35.0683" stroke="#2CA23F" stroke-width="5.4521" stroke-miterlimit="10"/>
<path d="M13.207 46.9077H35.0683" stroke="#2CA23F" stroke-width="5.4521" stroke-miterlimit="10"/>
<path d="M51.6941 13.6548L45.4363 19.8882L42.2588 16.7231" fill="white"/>
<path d="M51.6941 13.6548L45.4363 19.8882L42.2588 16.7231" stroke="#2CA23F" stroke-width="4.36252" stroke-linecap="round" stroke-linejoin="round"/>
<path d="M13.207 60.0356H35.0683" stroke="#2CA23F" stroke-width="5.4521" stroke-miterlimit="10"/>
<path d="M71.6788 69.8345C70.3443 71.5002 68.6504 72.8451 66.7227 73.7694C64.7949 74.6937 62.683 75.1738 60.5435 75.1738C58.4041 75.1738 56.2921 74.6937 54.3644 73.7694C52.4367 72.8451 50.7427 71.5002 49.4083 69.8345C24.3377 73.2361 21.7845 88.9072 21.7845 107.749C21.7845 109.069 27.4068 112.165 33.7469 112.165L33.8011 112.061C33.8011 112.683 33.8011 113.292 33.8011 113.873C42.3069 117.259 51.3827 118.999 60.5426 119C69.712 119.002 78.7941 117.225 87.2823 113.77C87.2823 113.212 87.2823 112.642 87.2823 112.054L87.3383 112.165C93.6822 112.165 99.3007 109.069 99.3007 107.749C99.3026 88.9072 96.7793 73.2323 71.6788 69.8345Z" fill="white" stroke="#F69B00" stroke-width="5.4521" stroke-linecap="round" stroke-linejoin="round"/>
<path d="M76.6266 43.8132C76.6266 54.5524 68.9856 63.9435 61.2456 63.9435C53.5055 63.9435 46.3879 54.5393 45.8646 43.8132C45.3412 33.0871 51.7317 24.3662 61.2456 24.3662C70.7594 24.3662 76.6266 33.0722 76.6266 43.8132Z" fill="white"/>
<path d="M76.6266 43.8132C76.6266 54.5524 68.9856 63.9435 61.2456 63.9435C53.5055 63.9435 46.3879 54.5393 45.8646 43.8132C45.3412 33.0871 51.7317 24.3662 61.2456 24.3662C70.7594 24.3662 76.6266 33.0722 76.6266 43.8132Z" stroke="#F69B00" stroke-width="5.4521" stroke-linecap="round" stroke-linejoin="round"/>
<path d="M24.865 93.2671C24.865 94.5871 28.0948 97.6834 34.4386 97.6834L24.865 93.2671Z" fill="white"/>
<path d="M24.865 93.2671C24.865 94.5871 28.0948 97.6834 34.4386 97.6834" stroke="#F69B00" stroke-width="5.4521" stroke-linecap="round" stroke-linejoin="round"/>
<path d="M99.9886 107.567C99.9886 108.889 94.3662 111.985 88.0262 111.985L99.9886 107.567Z" fill="white"/>
<path d="M99.9886 107.567C99.9886 108.889 94.3662 111.985 88.0262 111.985" stroke="#F69B00" stroke-width="5.4521" stroke-linecap="round" stroke-linejoin="round"/>
<path d="M99.9886 107.567C99.9886 88.7288 97.4652 73.0521 72.3648 69.6523C71.0305 71.318 69.3367 72.6629 67.4091 73.5872C65.4816 74.5116 63.3697 74.9916 61.2304 74.9916C59.0911 74.9916 56.9793 74.5116 55.0518 73.5872C53.1242 72.6629 51.4304 71.318 50.0961 69.6523C25.0237 73.0558 22.4705 88.7307 22.4705 107.567" fill="white"/>
<path d="M99.9886 107.567C99.9886 88.7288 97.4652 73.0521 72.3648 69.6523C71.0305 71.318 69.3367 72.6629 67.4091 73.5872C65.4816 74.5116 63.3697 74.9916 61.2304 74.9916C59.0911 74.9916 56.9793 74.5116 55.0518 73.5872C53.1242 72.6629 51.4304 71.318 50.0961 69.6523C25.0237 73.0558 22.4705 88.7307 22.4705 107.567" stroke="#F69B00" stroke-width="5.4521" stroke-linecap="round" stroke-linejoin="round"/>
<path d="M37.1132 89.3096C34.4197 96.1425 34.4964 106.541 34.4964 113.7C43.0019 117.084 52.0769 118.824 61.236 118.825C70.4055 118.827 79.4876 117.051 87.9757 113.596C87.9757 107.098 87.9196 97.7382 86.0169 91.2366" fill="white"/>
<path d="M37.1132 89.3096C34.4197 96.1425 34.4964 106.541 34.4964 113.7C43.0019 117.084 52.0769 118.824 61.236 118.825C70.4055 118.827 79.4876 117.051 87.9757 113.596C87.9757 107.098 87.9196 97.7382 86.0169 91.2366" stroke="#F69B00" stroke-width="5.4521" stroke-linecap="round" stroke-linejoin="round"/>
</svg>
