<svg width="34" height="34" viewBox="0 0 34 34" fill="none" xmlns="http://www.w3.org/2000/svg">
<circle cx="16.8161" cy="15.2495" r="14.9272" stroke="#2CA23F" stroke-width="0.609276"/>
<circle cx="16.8161" cy="18.6615" r="14.9272" stroke="#2CA23F" stroke-width="0.609276"/>
<circle cx="18.7657" cy="17.1993" r="14.9272" stroke="#2CA23F" stroke-width="0.609276"/>
<circle cx="15.2319" cy="17.1993" r="14.9272" stroke="#2CA23F" stroke-width="0.609276"/>
<path d="M12.5011 11.3269C12.3823 11.3535 12.262 11.4091 12.15 11.4891C12.0594 11.5531 11.8873 11.7229 11.8165 11.8181C11.5987 12.1113 11.4715 12.4494 11.4098 12.8995C11.3938 13.0152 11.3969 13.4257 11.4136 13.5544C11.4761 14.0152 11.6109 14.3274 11.8523 14.5673C12.1767 14.8902 12.6054 14.9656 12.9839 14.7668C13.1522 14.6777 13.303 14.5323 13.4249 14.3396C13.6754 13.9436 13.795 13.4356 13.7569 12.9292C13.7242 12.4959 13.5962 12.0839 13.4089 11.8051C13.3365 11.6978 13.3152 11.6719 13.2208 11.5782C13.0982 11.4571 12.971 11.3779 12.8354 11.3383C12.7608 11.3162 12.575 11.3101 12.5011 11.3269Z" fill="#F69B00"/>
<path d="M22.709 11.5173C22.3328 11.5554 21.9795 11.6468 21.4753 11.8357C21.1372 11.9621 20.9148 12.0588 20.6148 12.2065C20.2568 12.384 20.0459 12.5043 19.742 12.7061C19.6019 12.7983 19.298 13.0191 19.2622 13.0526C19.2561 13.0587 19.2348 13.077 19.2135 13.0937C19.1549 13.1402 19.0421 13.2369 18.8137 13.4357C18.4291 13.7708 18.2577 13.9634 18.1458 14.1866C18.0765 14.3237 18.1176 14.3876 18.2768 14.3869C18.4085 14.3853 18.5707 14.3503 18.838 14.2635C19.1579 14.1599 19.2851 14.1249 19.5105 14.0807C19.8623 14.0107 20.0535 13.9931 20.4472 13.9924C20.8303 13.9924 20.978 14.0053 21.3268 14.0693C21.5263 14.1066 21.6695 14.1447 21.9437 14.2338C22.2041 14.3183 22.3077 14.3389 22.4775 14.3389C22.5963 14.3389 22.6694 14.3267 22.7623 14.2909C22.8773 14.2475 22.9063 14.2178 22.907 14.1447C22.907 14.0906 22.885 14.0457 22.8347 14.0008C22.6694 13.8515 22.1805 13.6405 21.7495 13.5324C21.3725 13.438 21.0321 13.4045 20.518 13.4121C20.3596 13.4144 20.2302 13.4136 20.2302 13.4098C20.2302 13.39 20.3619 13.294 20.4472 13.2514C20.5774 13.1867 20.9064 13.0869 21.1402 13.0412C21.5606 12.959 22.0861 12.9216 22.591 12.9376C22.9025 12.9475 23.3206 12.9475 23.4554 12.9376C23.6793 12.9216 23.7531 12.9064 23.8498 12.8561C23.9702 12.7929 23.9862 12.7122 23.8955 12.6216C23.8407 12.5668 23.7706 12.5256 23.6838 12.4967C23.5643 12.4578 23.4927 12.4487 23.249 12.4449C22.9444 12.4396 22.6001 12.4563 22.2064 12.4967C21.5416 12.5637 21.3207 12.5751 21.0846 12.5515C21.0389 12.547 21.0374 12.547 21.0496 12.5332C21.0763 12.5035 21.2347 12.4045 21.3329 12.3558C21.6284 12.2081 22.064 12.071 22.5384 11.975C22.6473 11.9529 22.7235 11.9408 22.9337 11.9095C23.2414 11.8646 23.3982 11.8159 23.4546 11.7488C23.5224 11.6689 23.4036 11.5729 23.185 11.5326C23.038 11.5051 22.8827 11.4998 22.709 11.5173Z" fill="#F69B00"/>
<path d="M24.1043 16.9699C24.0037 17.0072 23.942 17.1093 23.9337 17.2517C23.9314 17.289 23.936 17.4109 23.9436 17.5221C23.9626 17.7924 23.9626 18.2212 23.9443 18.3902C23.8971 18.819 23.7958 19.1526 23.5841 19.5706C23.4409 19.8532 23.2635 20.122 23.0564 20.3703C22.8104 20.6658 22.4806 20.9849 22.1493 21.2506C20.9468 22.2155 19.2981 22.8568 17.5686 23.0312C17.2327 23.0654 17.1284 23.07 16.689 23.07C16.2488 23.07 16.1772 23.0669 15.8855 23.035C14.8742 22.9245 13.8629 22.6153 12.8089 22.0952C11.9917 21.6916 11.2614 21.2103 10.7222 20.7206C10.5569 20.5706 10.2676 20.2713 10.1084 20.0847C9.92942 19.8753 9.88982 19.8197 9.64612 19.4328C9.43898 19.1046 9.31332 18.9523 9.20366 18.8936C8.9691 18.7687 8.70712 18.9012 8.49922 19.2485C8.45505 19.3231 8.38422 19.477 8.36138 19.5478C8.29588 19.7534 8.35224 19.9202 8.52663 20.0405C8.62944 20.1114 8.73073 20.1563 9.0087 20.256C9.56083 20.4533 9.85022 20.5957 10.0901 20.7907C10.1815 20.8645 10.3475 21.0077 10.5166 21.1585C10.7968 21.409 10.937 21.5263 11.1525 21.6931C12.0884 22.4158 13.1234 23.0365 13.9245 23.3563C14.6145 23.6313 15.3113 23.7973 16.0607 23.8651C18.0948 24.0501 20.2127 23.4256 21.9247 22.1348C22.2636 21.8789 22.556 21.623 22.8888 21.2918C23.166 21.0161 23.3107 20.8584 23.5346 20.5873C23.5902 20.5203 23.642 20.4579 23.6496 20.4495C23.7265 20.3581 23.9702 20.0314 24.1058 19.8372C24.1576 19.7641 24.2246 19.6727 24.2558 19.6346C24.3183 19.5569 24.4531 19.4244 24.5216 19.3719C24.6846 19.2485 24.875 19.1602 25.108 19.0985C25.2192 19.0695 25.2763 19.0581 25.5139 19.0185C25.7401 18.9804 25.7881 18.9644 25.8322 18.9127C25.8924 18.8418 25.8848 18.7802 25.7995 18.6545C25.5588 18.2981 25.1902 17.8663 24.6511 17.3088C24.584 17.2395 24.4987 17.1512 24.4614 17.1123C24.4234 17.0735 24.3754 17.0301 24.354 17.0164C24.2756 16.9638 24.1728 16.9448 24.1043 16.9699Z" fill="#F69B00"/>
</svg>
