<svg width="43" height="33" viewBox="0 0 43 33" fill="none" xmlns="http://www.w3.org/2000/svg">
<path d="M9.53613 4.35366C9.29003 4.44936 9.05005 4.60761 8.83594 4.8154C8.66237 4.98197 8.34841 5.40198 8.22742 5.62908C7.85551 6.32846 7.6925 7.09478 7.70626 8.07991C7.70952 8.33331 7.84924 9.21252 7.92692 9.48306C8.21032 10.4508 8.60067 11.0766 9.19616 11.5127C9.99659 12.0998 10.9404 12.1223 11.6876 11.5733C12.0195 11.3277 12.2957 10.9668 12.4945 10.5141C12.9032 9.58368 12.9948 8.45567 12.7488 7.38207C12.538 6.46351 12.13 5.62156 11.6379 5.08466C11.4479 4.87788 11.3938 4.82927 11.1609 4.65905C10.8587 4.43918 10.5603 4.31061 10.2567 4.26968C10.0895 4.24654 9.6891 4.29376 9.53613 4.35366Z" fill="#F69B00"/>
<path d="M31.4869 1.45001C30.6925 1.65372 29.9644 1.96433 28.9447 2.53289C28.2606 2.91368 27.8152 3.19322 27.2197 3.60738C26.5097 4.10401 26.0964 4.43047 25.5103 4.9618C25.2398 5.20486 24.6598 5.77702 24.594 5.86049C24.5829 5.87553 24.5431 5.92164 24.5028 5.96449C24.3921 6.08313 24.1818 6.32709 23.7564 6.82743C23.0405 7.67074 22.7355 8.13948 22.5679 8.65428C22.4638 8.97071 22.5727 9.09454 22.9137 9.04126C23.1958 8.99525 23.5322 8.8675 24.0772 8.59461C24.7295 8.26874 24.9909 8.15236 25.4599 7.98451C26.1916 7.72012 26.5958 7.62054 27.4398 7.49116C28.2612 7.36687 28.5823 7.3467 29.3509 7.37071C29.7909 7.38599 30.1102 7.42119 30.727 7.5233C31.313 7.62006 31.5417 7.63054 31.9059 7.57544C32.1606 7.5369 32.3135 7.48705 32.5011 7.38015C32.7336 7.24976 32.786 7.17668 32.7639 7.01967C32.7464 6.90372 32.6844 6.81454 32.5621 6.7345C32.1593 6.46805 31.0424 6.17433 30.0831 6.0823C29.2441 6.00211 28.5032 6.04071 27.4034 6.22382C27.0645 6.28012 26.7866 6.32049 26.7854 6.31232C26.779 6.26987 27.0304 6.02136 27.1994 5.90224C27.4577 5.72118 28.1308 5.40051 28.6173 5.22667C29.492 4.91392 30.6067 4.66341 31.6946 4.53388C32.3657 4.45405 33.2622 4.3184 33.548 4.25344C34.023 4.1465 34.1764 4.08987 34.3675 3.95071C34.605 3.77613 34.6131 3.59784 34.3894 3.43292C34.254 3.33313 34.0904 3.26768 33.8949 3.23379C33.6259 3.1893 33.4694 3.19293 32.9456 3.26384C32.2907 3.35124 31.558 3.49885 30.7268 3.71315C29.3229 4.07256 28.8531 4.16871 28.3392 4.19468C28.2397 4.19971 28.2365 4.20021 28.2581 4.16686C28.3057 4.09452 28.6132 3.83084 28.808 3.69445C29.3937 3.28177 30.2833 2.8465 31.2696 2.4868C31.4959 2.40411 31.6553 2.35327 32.0958 2.21812C32.741 2.02195 33.0616 1.86654 33.1607 1.70455C33.2801 1.51109 32.9942 1.34388 32.5124 1.32824C32.1884 1.31714 31.8535 1.35612 31.4869 1.45001Z" fill="#F69B00"/>
<path d="M36.2477 12.6894C36.0443 12.8021 35.9451 13.0409 35.9734 13.349C35.9806 13.4297 36.0299 13.6895 36.0823 13.9255C36.2108 14.499 36.35 15.4184 36.3656 15.7869C36.4035 16.7216 36.2945 17.4697 35.9762 18.4349C35.7609 19.0872 35.4676 19.7213 35.104 20.3208C34.6724 21.0342 34.0688 21.8255 33.4447 22.5029C31.1792 24.9621 27.8518 26.872 24.1998 27.8071C23.4907 27.9896 23.2685 28.0332 22.3262 28.1758C21.3824 28.3186 21.2279 28.3353 20.5921 28.3613C18.3876 28.4527 16.1186 28.1178 13.6898 27.3444C11.8066 26.7441 10.0844 25.9489 8.76931 25.0739C8.36627 24.8058 7.64862 24.2579 7.24678 23.9094C6.79508 23.5184 6.69212 23.4121 6.04404 22.6616C5.49336 22.0249 5.1745 21.7391 4.92032 21.6489C4.37683 21.4572 3.85806 21.8264 3.52492 22.6385C3.45442 22.8129 3.35246 23.1657 3.32645 23.325C3.25273 23.7872 3.42768 24.1265 3.84068 24.3279C4.08412 24.4464 4.31589 24.5099 4.94431 24.6337C6.19224 24.8775 6.85899 25.089 7.43664 25.4292C7.65657 25.5579 8.05902 25.8111 8.47047 26.0796C9.15272 26.5259 9.49124 26.7319 10.0075 27.0196C12.249 28.2657 14.6696 29.2608 16.4913 29.6867C18.06 30.0524 19.6081 30.1823 21.237 30.0845C25.6588 29.8213 29.9976 27.7951 33.2498 24.4717C33.8935 23.813 34.4375 23.1695 35.0437 22.3511C35.5486 21.67 35.8078 21.2851 36.1999 20.6311C36.2974 20.4693 36.3882 20.3186 36.4018 20.2982C36.5371 20.0773 36.9536 19.2976 37.1813 18.8372C37.2686 18.6637 37.3827 18.446 37.4373 18.3542C37.546 18.1673 37.792 17.8395 37.9219 17.7045C38.2314 17.3871 38.611 17.1359 39.0907 16.928C39.3197 16.8299 39.4385 16.7869 39.9351 16.6249C40.4078 16.4698 40.5055 16.42 40.5834 16.2946C40.6894 16.1232 40.653 15.9934 40.4294 15.7516C39.7977 15.0655 38.8672 14.2591 37.5302 13.2387C37.364 13.1118 37.1524 12.9501 37.0598 12.8789C36.9656 12.808 36.8486 12.7305 36.7984 12.708C36.6132 12.6208 36.3865 12.6133 36.2477 12.6894Z" fill="#F69B00"/>
</svg>
